<?xml version="1.0" standalone="no"?>
<!DOCTYPE svg PUBLIC "-//W3C//DTD SVG 20010904//EN"
 "http://www.w3.org/TR/2001/REC-SVG-20010904/DTD/svg10.dtd">
<svg version="1.0" xmlns="http://www.w3.org/2000/svg"
 width="512.000000pt" height="512.000000pt" viewBox="0 0 512.000000 512.000000"
 preserveAspectRatio="xMidYMid meet">
<metadata>
Created by potrace 1.11, written by Peter Selinger 2001-2013
</metadata>
<g transform="translate(0.000000,512.000000) scale(0.100000,-0.100000)"
fill="#000000" stroke="none">
<path d="M0 2560 l0 -2560 2560 0 2560 0 0 2560 0 2560 -2560 0 -2560 0 0
-2560z m3991 938 c27 -24 49 -48 49 -54 0 -16 -116 -123 -195 -180 -37 -26
-141 -85 -232 -131 -91 -45 -193 -103 -227 -127 -66 -48 -133 -112 -124 -121
3 -3 24 2 48 10 34 12 55 13 97 5 98 -18 147 -46 201 -114 l23 -30 17 25 c106
152 365 166 517 28 187 -172 152 -508 -64 -619 -47 -24 -143 -50 -184 -50
l-28 0 3 72 3 72 50 11 c64 15 85 26 123 69 52 60 65 140 37 234 -40 133 -188
185 -306 107 -54 -35 -79 -95 -86 -204 l-6 -91 -78 0 -79 0 0 68 c-1 135 -33
202 -115 242 -59 29 -120 29 -179 0 -58 -27 -90 -75 -106 -152 -28 -142 40
-248 177 -276 l38 -8 3 -72 3 -72 -35 0 c-18 0 -63 9 -99 20 -172 53 -261 181
-259 375 1 186 71 342 222 496 108 109 165 150 335 240 166 87 242 137 316
208 35 33 70 60 77 61 7 0 35 -19 63 -42z m-1727 16 c14 -5 16 -46 16 -357 l0
-351 28 26 c75 71 175 89 294 54 128 -38 213 -138 244 -287 13 -63 13 -81 0
-150 -27 -141 -99 -235 -215 -281 -44 -17 -76 -22 -151 -22 -180 1 -282 69
-343 232 -21 55 -21 73 -25 591 -2 432 -1 536 10 542 15 10 119 12 142 3z
m-483 -655 c11 -71 21 -85 128 -167 45 -34 75 -105 75 -177 -1 -117 -55 -216
-152 -272 -40 -24 -43 -28 -27 -37 94 -55 157 -134 175 -220 23 -110 -46 -306
-136 -384 -81 -72 -215 -119 -314 -109 -177 16 -294 128 -353 334 -20 73 -22
97 -21 368 1 292 11 443 41 613 l16 92 85 0 85 0 -7 -37 c-39 -223 -48 -337
-49 -643 -2 -300 -1 -318 20 -386 28 -89 69 -145 125 -173 109 -52 262 6 316
123 27 56 45 157 36 203 -15 79 -125 153 -229 153 l-45 0 0 80 0 80 63 0 c131
1 217 82 217 205 0 54 -40 116 -103 160 -69 48 -93 83 -108 158 -17 84 -13 88
78 85 l78 -3 6 -46z"/>
<path d="M2427 2734 c-62 -19 -122 -78 -138 -136 -27 -101 12 -228 84 -276 34
-23 52 -27 107 -27 56 0 73 4 109 28 130 86 118 325 -19 393 -63 31 -88 34
-143 18z"/>
</g>
</svg>
